<svg height="512pt" viewBox="0 -86 512.00002 512" width="512pt" xmlns="http://www.w3.org/2000/svg"><path d="m256 105.300781v27.328125l-213.316406-110.582031 10.496094-18.171875c1.726562-2.996094 5.234374-4.484375 8.589843-3.640625l99.484375 24.921875c42.289063 10.597656 77.28125 40.195312 94.746094 80.144531zm0 0" fill="#ebe1dc"/><path d="m256 161.636719-238.347656-123.554688c-2.933594-1.519531-4.078125-5.132812-2.558594-8.070312l6.34375-12.234375c1.523438-2.933594 5.132812-4.082032 8.070312-2.558594l226.492188 117.410156zm0 0" fill="#a4f7c5"/><path d="m496.90625 30.011719-6.34375-12.234375c-1.523438-2.933594-5.132812-4.082032-8.070312-2.558594l-205.546876 106.550781v29.007813l217.402344-112.695313c2.933594-1.519531 4.082032-5.132812 2.558594-8.070312zm0 0" fill="#7af4ab"/><path d="m256 219.363281-193.75 120.914063c-.84375.53125-1.960938.199218-2.382812-.707032-7.59375-16.351562-2.628907-35.792968 11.875-46.503906l12.101562-8.9375c8.023438-7.152344 13.34375-16.847656 15.066406-27.457031 1.515625-9.34375 7.367188-17.421875 15.769532-21.777344l90.792968-47.066406zm253.308594-180.921875-.199219-.351562c-1.90625-3.296875-6.066406-4.515625-9.449219-2.761719l-222.714844 115.449219v21.714844l29.582032 15.335937 196.03125-122.339844c9.171875-5.722656 12.15625-17.6875 6.75-27.046875zm0 0" fill="#c97e67"/><path d="m256 219.363281-246.558594-153.875c-9.171875-5.722656-12.15625-17.683593-6.75-27.046875l.199219-.351562c1.90625-3.296875 6.066406-4.515625 9.449219-2.761719l243.660156 126.308594zm184.257812 73.703125-12.101562-8.9375c-8.023438-7.152344-13.347656-16.847656-15.066406-27.457031-1.515625-9.34375-7.367188-17.421875-15.769532-21.777344l-120.375-62.402343v59.941406l172.804688 107.84375c.84375.53125 1.960938.199218 2.382812-.707032 7.59375-16.351562 2.628907-35.792968-11.875-46.503906zm0 0" fill="#d29380"/><path d="m273.355469 67.761719c-4.113281 4.894531-7.90625 10.054687-11.347657 15.441406-3.980468 6.222656-6.007812 13.496094-6.007812 20.882813v188.015624c0 .867188.992188 1.355469 1.679688.832032l5.722656-4.34375c1.816406-1.378906 4.328125-1.378906 6.144531 0l5.722656 4.34375c.6875.523437 1.675781.035156 1.675781-.832032v-223.019531c0-1.890625-2.371093-2.769531-3.589843-1.320312zm0 0" fill="#ff94d2"/><path d="m276.945312 121.769531 192.371094-99.71875-10.496094-18.175781c-1.726562-2.996094-5.234374-4.480469-8.589843-3.640625l-99.484375 24.925781c-29.207032 7.316406-54.925782 23.699219-73.800782 46.292969zm0 0" fill="#dcd2cd"/><path d="m256 119.082031c-30.195312-41.277343-73.675781-70.617187-123.570312-83.117187-4.140626-1.039063-8.335938 1.476562-9.375 5.617187-1.035157 4.136719 1.476562 8.335938 5.617187 9.371094 45.027344 11.28125 84.429687 37.308594 112.375 73.921875l14.953125 7.753906zm0 0" fill="#dcd2cd"/><path d="m276.945312 114.621094c27.023438-29.40625 61.769532-50.074219 100.507813-59.78125 4.140625-1.039063 6.65625-5.234375 5.617187-9.371094-1.035156-4.140625-5.230468-6.65625-9.371093-5.617188-36.425781 9.125-69.570313 27.261719-96.753907 52.808594zm0 0" fill="#c8beb9"/></svg>